<svg xmlns="http://www.w3.org/2000/svg" viewBox="0 0 1400 788" role="img" aria-labelledby="title desc">
  <title id="title">Hausvia Ratgeber Grafik zu Hausmeisterservice Komplettpaket</title>
  <desc id="desc">Illustration mit Mehrfamilienhaus und Service-Bausteinen fuer Reinigung, Muelldienst, Aussenpflege und Kontrollgaenge.</desc>
  <rect width="1400" height="788" fill="#f7f9fc"/>
  <rect width="1400" height="118" fill="#082b61"/>
  <rect y="118" width="1400" height="18" fill="#f5c542"/>
  <text x="112" y="78" fill="#ffffff" font-family="Arial, sans-serif" font-size="42" font-weight="700">Komplettpaket fuer Mehrfamilienhaeuser</text>
  <g transform="translate(118 176)">
    <rect x="0" y="100" width="444" height="376" rx="20" fill="#ffffff" stroke="#d8e1ee" stroke-width="4"/>
    <path d="M-18 120 222 0 462 120" fill="none" stroke="#082b61" stroke-width="34" stroke-linecap="round" stroke-linejoin="round"/>
    <rect x="64" y="174" width="64" height="78" rx="8" fill="#eaf1fb" stroke="#b9c8da" stroke-width="4"/>
    <rect x="158" y="174" width="64" height="78" rx="8" fill="#eaf1fb" stroke="#b9c8da" stroke-width="4"/>
    <rect x="252" y="174" width="64" height="78" rx="8" fill="#eaf1fb" stroke="#b9c8da" stroke-width="4"/>
    <rect x="64" y="288" width="64" height="78" rx="8" fill="#eaf1fb" stroke="#b9c8da" stroke-width="4"/>
    <rect x="158" y="288" width="64" height="78" rx="8" fill="#eaf1fb" stroke="#b9c8da" stroke-width="4"/>
    <rect x="252" y="288" width="64" height="78" rx="8" fill="#eaf1fb" stroke="#b9c8da" stroke-width="4"/>
    <rect x="344" y="288" width="50" height="166" rx="10" fill="#f5c542" stroke="#b88700" stroke-width="4"/>
    <path d="M48 476h348" stroke="#c4cfdd" stroke-width="18" stroke-linecap="round"/>
  </g>
  <g transform="translate(650 172)">
    <rect width="220" height="166" rx="22" fill="#ffffff" stroke="#d8e1ee" stroke-width="4"/>
    <circle cx="70" cy="72" r="34" fill="#eaf1fb" stroke="#082b61" stroke-width="8"/>
    <path d="M48 100c30 16 60 16 92 0" stroke="#f5c542" stroke-width="14" stroke-linecap="round"/>
    <rect x="112" y="48" width="70" height="16" rx="8" fill="#082b61"/>
    <rect x="112" y="82" width="52" height="12" rx="6" fill="#9aa9bd"/>
    <text x="40" y="138" fill="#082b61" font-family="Arial, sans-serif" font-size="22" font-weight="700">Reinigung</text>
  </g>
  <g transform="translate(946 172)">
    <rect width="220" height="166" rx="22" fill="#ffffff" stroke="#d8e1ee" stroke-width="4"/>
    <rect x="54" y="48" width="54" height="76" rx="10" fill="#082b61"/>
    <rect x="118" y="48" width="54" height="76" rx="10" fill="#f5c542"/>
    <circle cx="68" cy="130" r="9" fill="#9aa9bd"/>
    <circle cx="132" cy="130" r="9" fill="#9aa9bd"/>
    <text x="44" y="138" fill="#082b61" font-family="Arial, sans-serif" font-size="22" font-weight="700">Muelldienst</text>
  </g>
  <g transform="translate(650 410)">
    <rect width="220" height="166" rx="22" fill="#ffffff" stroke="#d8e1ee" stroke-width="4"/>
    <path d="M54 118c34-76 78-76 112 0" fill="#ecfdf3" stroke="#079455" stroke-width="8" stroke-linecap="round"/>
    <path d="M110 42v82" stroke="#082b61" stroke-width="12" stroke-linecap="round"/>
    <path d="M76 78c18-22 38-22 58 0M108 68c26-18 48-14 66 12" stroke="#079455" stroke-width="10" stroke-linecap="round"/>
    <text x="36" y="138" fill="#082b61" font-family="Arial, sans-serif" font-size="22" font-weight="700">Aussenpflege</text>
  </g>
  <g transform="translate(946 410)">
    <rect width="220" height="166" rx="22" fill="#ffffff" stroke="#d8e1ee" stroke-width="4"/>
    <rect x="58" y="46" width="104" height="82" rx="16" fill="#eaf1fb" stroke="#082b61" stroke-width="8"/>
    <path d="m78 88 20 20 46-52" fill="none" stroke="#079455" stroke-width="10" stroke-linecap="round" stroke-linejoin="round"/>
    <text x="28" y="138" fill="#082b61" font-family="Arial, sans-serif" font-size="22" font-weight="700">Kontrollgaenge</text>
  </g>
  <path d="M590 414h-82M870 255h76M870 493h76" stroke="#f5c542" stroke-width="14" stroke-linecap="round"/>
  <g transform="translate(150 682)">
    <rect width="1100" height="62" rx="14" fill="#fff4ce" stroke="#f5c542" stroke-width="3"/>
    <text x="34" y="40" fill="#082b61" font-family="Arial, sans-serif" font-size="26" font-weight="700">Reinigung, Muelldienst, Aussenpflege und Kontrollgaenge als planbare Objektbetreuung</text>
  </g>
</svg>
